<svg xmlns="http://www.w3.org/2000/svg" width="1088pt" height="1088pt" viewBox="0 0 900 900">
<g fill="#fff">
<path d="M423.5 50.74C430.3 50 437.16 50.01 444 50c77.37-1.5 154.96 19.69 221.08 59.87 64.22 38.82 117.38 95.67 151.54 162.51 34.45 66.95 49.56 143.7 42.84 218.71-5.67 65.53-27.83 129.52-63.75 184.61-27.41 42.15-62.7 79.14-103.53 108.48-43.96 31.72-94.27 54.59-147.04 66.96-68.73 16.19-141.58 14.49-209.45-5-71.95-20.48-138.17-60.93-188.9-115.94-51.58-55.47-87.08-125.72-100.91-200.21-12.71-67.3-7.71-137.82 14.29-202.67 20.32-60.41 55.32-115.73 100.9-160.25 53.35-52.14 121.15-89.27 193.8-106.21 22.54-5.26 45.52-8.79 68.63-10.12M317.47 303.8c-11.64 2.15-22.22 8.89-29.54 18.13-11 13.59-15.14 32.2-11.82 49.28 2.51 13.33 9.61 25.92 20.35 34.33 9.88 7.92 23 11.81 35.6 10.06 12.34-1.6 23.77-8.37 31.57-17.99 11.33-13.63 15.63-32.51 12.26-49.82-2.51-13.33-9.61-25.93-20.35-34.33-10.53-8.46-24.77-12.27-38.07-9.66m248 0c-11.64 2.15-22.22 8.89-29.54 18.13-11 13.59-15.14 32.2-11.82 49.28 2.51 13.33 9.61 25.92 20.34 34.33 9.89 7.92 23.02 11.81 35.61 10.06 12.58-1.62 24.18-8.63 32.01-18.53 11-13.59 15.14-32.2 11.82-49.28-2.51-13.33-9.61-25.92-20.34-34.33-10.54-8.46-24.77-12.27-38.08-9.66M243.33 500.25c-16.74 3.2-32.57 11.37-44.54 23.55-14.24 14.01-23.06 33.28-24.8 53.13 0.29 7.37-0.75 14.87 0.95 22.12 2.77 16.66 10.65 32.46 22.36 44.64 12.57 13.32 29.61 22.42 47.71 25.26 136.02 0.12 272.04 0 408.06 0.06 3.51 0.08 6.9-1.01 10.28-1.84 20.73-5.5 39.04-19.29 50.23-37.57 6.88-11.01 10.92-23.67 12.41-36.52-0.27-7.71 0.79-15.55-0.93-23.13-2.92-17.6-11.55-34.23-24.36-46.66-12.1-12.08-28.03-20.17-44.84-23.16-8.28-0.31-16.58-0.04-24.86-0.13H283c-13.22 0.17-26.48-0.34-39.67 0.25z"/>
<path d="M265 526h79v48h-79v-48zm96 0h80v48h-80v-48zm98 0h80v48h-80v-48zm97 0h79v48h-79v-48zm-338.33 16.66c8.85-7.25 19.07-13.28 30.33-15.76V574c-15.43-0.02-30.87 0.03-46.31-0.02 2.06-11.71 8.54-22.25 15.98-31.32zm434.34-15.77c11.25 2.5 21.48 8.52 30.32 15.77 7.44 9.07 13.92 19.61 15.97 31.32-15.43 0.05-30.87 0-46.3 0.02 0.01-15.7-0.02-31.41 0.01-47.11zM200.98 593H248v49.1c-11.26-2.48-21.49-8.52-30.33-15.76-8.09-9.57-14.24-20.99-16.69-33.34zm64.02 0h79v50h-79v-50zm96 0h80v50h-80v-50zm98 0h80v50h-80v-50zm97 0h79v50h-79v-50zm96 0h47.02c-2.46 12.35-8.6 23.77-16.69 33.34-8.84 7.25-19.07 13.27-30.32 15.77-0.03-16.37 0-32.74-0.01-49.11z"/>
</g>
</svg>